<svg id="visual" viewBox="0 0 900 600" width="900" height="600" xmlns="http://www.w3.org/2000/svg" xmlns:xlink="http://www.w3.org/1999/xlink" version="1.1"><path d="M0 380L21.5 380.3C43 380.7 86 381.3 128.8 391.5C171.7 401.7 214.3 421.3 257.2 424.5C300 427.7 343 414.3 385.8 412.5C428.7 410.7 471.3 420.3 514.2 421.7C557 423 600 416 642.8 410.3C685.7 404.7 728.3 400.3 771.2 399C814 397.7 857 399.3 878.5 400.2L900 401L900 601L878.5 601C857 601 814 601 771.2 601C728.3 601 685.7 601 642.8 601C600 601 557 601 514.2 601C471.3 601 428.7 601 385.8 601C343 601 300 601 257.2 601C214.3 601 171.7 601 128.8 601C86 601 43 601 21.5 601L0 601Z" fill="#a8d99d" stroke-linecap="round" stroke-linejoin="miter"></path></svg>